<?xml version="1.0" standalone="no"?><!DOCTYPE svg PUBLIC "-//W3C//DTD SVG 1.1//EN" "http://www.w3.org/Graphics/SVG/1.1/DTD/svg11.dtd"><svg width="32" height="32" viewBox="0 0 32 32" version="1.1" xmlns="http://www.w3.org/2000/svg" xmlns:xlink="http://www.w3.org/1999/xlink"><defs><style type="text/css"><![CDATA[
@font-face { font-family: ifont; src: url("//at.alicdn.com/t/font_1442373896_4754455.eot?#iefix") format("embedded-opentype"), url("//at.alicdn.com/t/font_1442373896_4754455.woff") format("woff"), url("//at.alicdn.com/t/font_1442373896_4754455.ttf") format("truetype"), url("//at.alicdn.com/t/font_1442373896_4754455.svg#ifont") format("svg"); }

]]></style></defs><g class="transform-group"><g transform="scale(0.03125, 0.03125)"><path d="M819.2 128 204.8 128C162.133333 128 128 162.133333 128 204.8L128 896l153.6-153.6 537.6 0c42.666667 0 76.8-34.133333 76.8-76.8L896 204.8C896 162.133333 861.866667 128 819.2 128zM396.8 473.6 320 473.6l0-76.8 76.8 0L396.8 473.6zM550.4 473.6l-76.8 0 0-76.8 76.8 0L550.4 473.6zM704 473.6l-76.8 0 0-76.8L704 396.8 704 473.6z" fill="#ffc000"></path></g></g></svg>