<?xml version="1.0" standalone="no"?><!DOCTYPE svg PUBLIC "-//W3C//DTD SVG 1.1//EN" "http://www.w3.org/Graphics/SVG/1.1/DTD/svg11.dtd"><svg width="32" height="32" viewBox="0 0 32 32" version="1.1" xmlns="http://www.w3.org/2000/svg" xmlns:xlink="http://www.w3.org/1999/xlink"><defs><style type="text/css"><![CDATA[
@font-face { font-family: ifont; src: url("//at.alicdn.com/t/font_1442373896_4754455.eot?#iefix") format("embedded-opentype"), url("//at.alicdn.com/t/font_1442373896_4754455.woff") format("woff"), url("//at.alicdn.com/t/font_1442373896_4754455.ttf") format("truetype"), url("//at.alicdn.com/t/font_1442373896_4754455.svg#ifont") format("svg"); }

]]></style></defs><g class="transform-group"><g transform="scale(0.03125, 0.03125)"><path d="M355.931 396.25l-0.142 0.43h0.142zM368.151 392.513l-12.221 4.172c0.43 0.287 0.43 0.58 0.43 0.858 6.324-2.875 10.783-4.455 11.79-5.033zM831.158 486.686c-11.357-57.515-17.499-107.218-65.89-160.271-1.489 157.476-31.088 163.058-85.259 177.015 7.63-14.148 11.726-26.621 11.171-40.020 6.516-90.464 14.331-171.995-65.89-256.69-1.299 52.679 12.47 97.354-25.872 141.467-11.357-81.905-56.956-149.095-108.521-214.811-35.549-34.996-67.385-72.596-116.703-105.535 13.216 38.718 34.433 71.481 35.734 107.406 3.539 12.284 7.63 24.386 10.059 36.665 17.123 92.329-8.745 181.673-38.718 270.651-21.588 40.58-42.627 80.971-65.334 120.435-1.675 3.355-2.975 7.814-5.579 10.611 0 0-32.015-135.695 15.634-216.3h-0.183c-1.299 0.751-7.071 2.789-15.262 6.516 0-0.371 0-0.751-0.371-1.11h-0.371c-0.558 0.751-1.11 1.489-2.051 2.414-48.027 21.965-169.761 101.632-107.406 311.785v0c11.726 70.177 36.111 137.371 94.374 196.379 0 0 13.402 16.192 37.038 37.413 11.916 11.357 24.386 21.774 39.463 31.643 3.539 2.235 7.63 4.846 11.726 7.261 84.321 53.793 218.716 91.955 353.487-66.45 13.778-15.262 26.063-31.27 36.665-47.279 0-0.751 0.371-0.933 0.751-1.11v-0.371c31.27-49.329 49.51-103.124 58.822-159.52 16.382-63.1 11.545-119.5-1.489-188.192zM566.098 952.037c-138.858 35.549-256.315-125.087-256.315-125.087 166.031 143.888 256.315 104.611 256.315 104.611 25.314 11.171 0 20.474 0 20.474zM598.855 933.053c-6.702 0-11.726-4.846-11.726-11.726 0-6.516 5.212-11.726 11.726-11.726 6.516 0 11.545 5.024 11.545 11.726 0 6.702-4.846 11.726-11.545 11.726z" fill="#ffc000"></path></g></g></svg>