<?xml version="1.0" encoding="utf-8"?>
<!-- Generator: Adobe Illustrator 19.2.1, SVG Export Plug-In . SVG Version: 6.00 Build 0)  -->
<svg version="1.1" id="图层_1" xmlns="http://www.w3.org/2000/svg" xmlns:xlink="http://www.w3.org/1999/xlink" x="0px" y="0px"
	 viewBox="0 0 200 200" style="enable-background:new 0 0 200 200;" xml:space="preserve">

<!-- style 标签里写 CSS
.类名{fill:颜色}
这样的格式 -->
<style type="text/css">
	.fuckingClass{fill:#ffffff;}
</style>

<g>
	<g transform="scale(0.1953125, 0.1953125)">

<!-- path 是不规则路径，这一坨 path 就是耳机，加上一个 Class 就显示了之前的颜色了。 -->

		<path class="fuckingClass" d="M512.3,182c-184.1,0-333.4,149.2-333.4,333.4c0,0.5,0,1,0,1.5c16.3-5.3,33.7-8.3,51.8-8.3
			c1.5,0,3,0.1,4.5,0.3V842h56.3c10,0,18.2-8.3,18.2-18.2V518.3c0-10-8.1-18.2-18.2-18.2h-54.4c5.1-147.6,126.3-265.7,275.1-265.7
			s269.9,118.1,275.1,265.7h-50.4c-10,0-18.2,8.1-18.2,18.2v305.5c0,10,8.3,18.2,18.2,18.2h56.3V508.5c18.3,0,35.8,3.1,52.3,8.5
			c0-0.6,0-1.2,0-1.7C845.6,331.3,696.4,182,512.3,182z M64,675.3c0,73.9,48.3,136.6,114.9,158.4V516.9
			C112.3,538.7,64,601.3,64,675.3z M845.6,517.1v316.4C912.1,811.5,960,749,960,675.3C960,601.5,912.1,539.1,845.6,517.1z"/>
	</g>
	<!-- 包裹 path 的 g 标签相当于图层组的概念比如这一层的 p 标签，有个变小到 19.53% 的属性，对这组的所有 path 生效。 -->
</g>


<!-- 这两个 circle 是眼睛 -->
<circle class="fuckingClass" cx="81.5" cy="114.9" r="8.7"/>
<circle class="fuckingClass" cx="118.5" cy="114.9" r="8.7"/>

<!-- 嘴 -->
<path class="fuckingClass" d="M122.8,140.4c-0.3,0-0.6,0.2-0.9,0.4l0,0c-6,4.7-13.6,7.5-21.9,7.5s-15.8-2.8-21.9-7.5l0,0
	c-0.3-0.2-0.5-0.4-0.9-0.4c-0.6,0-1.2,0.5-1.2,1.2c0,0.3,0.1,0.5,0.2,0.7c4.6,8.3,13.5,14,23.7,14s19.1-5.6,23.7-14
	c0.1-0.2,0.2-0.4,0.2-0.7C124,140.9,123.4,140.4,122.8,140.4z"/>
</svg>
