<?xml version="1.0" standalone="no"?><!DOCTYPE svg PUBLIC "-//W3C//DTD SVG 1.1//EN" "http://www.w3.org/Graphics/SVG/1.1/DTD/svg11.dtd"><svg width="200" height="200" viewBox="0 0 200 200" version="1.1" xmlns="http://www.w3.org/2000/svg" xmlns:xlink="http://www.w3.org/1999/xlink"><defs><style type="text/css"><![CDATA[
@font-face { font-family: ifont; src: url("//at.alicdn.com/t/font_1442373896_4754455.eot?#iefix") format("embedded-opentype"), url("//at.alicdn.com/t/font_1442373896_4754455.woff") format("woff"), url("//at.alicdn.com/t/font_1442373896_4754455.ttf") format("truetype"), url("//at.alicdn.com/t/font_1442373896_4754455.svg#ifont") format("svg"); }

]]></style></defs><g class="transform-group"><g transform="scale(0.1953125, 0.1953125)"><path d="M512.256 182.016c-184.128 0-333.376 149.248-333.376 333.376 0 0.512 0 1.024 0 1.472 16.32-5.312 33.664-8.32 51.776-8.32 1.536 0 3.008 0.128 4.544 0.256l0 333.184 56.32 0c10.048 0 18.176-8.256 18.176-18.24L309.696 518.272c0-10.048-8.128-18.176-18.176-18.176l-54.4 0c5.12-147.648 126.272-265.664 275.072-265.664s269.888 118.08 275.072 265.664l-50.368 0c-9.984 0-18.24 8.128-18.24 18.176l0 305.472c0 9.984 8.256 18.24 18.24 18.24l56.32 0 0-333.44c18.304 0 35.84 3.072 52.288 8.512 0-0.576 0-1.152 0-1.664C845.632 331.264 696.448 182.016 512.256 182.016zM64 675.328c0 73.92 48.256 136.576 114.88 158.4l0-316.8C112.256 538.688 64 601.344 64 675.328zM845.632 517.056l0 316.352C912.064 811.52 960 748.992 960 675.328 960 601.472 912.064 539.072 845.632 517.056z" fill="#ffffff"></path></g></g></svg>