<?xml version="1.0" standalone="no"?><!DOCTYPE svg PUBLIC "-//W3C//DTD SVG 1.1//EN" "http://www.w3.org/Graphics/SVG/1.1/DTD/svg11.dtd"><svg width="200" height="200" viewBox="0 0 200 200" version="1.1" xmlns="http://www.w3.org/2000/svg" xmlns:xlink="http://www.w3.org/1999/xlink"><defs><style type="text/css"><![CDATA[
@font-face { font-family: ifont; src: url("//at.alicdn.com/t/font_1442373896_4754455.eot?#iefix") format("embedded-opentype"), url("//at.alicdn.com/t/font_1442373896_4754455.woff") format("woff"), url("//at.alicdn.com/t/font_1442373896_4754455.ttf") format("truetype"), url("//at.alicdn.com/t/font_1442373896_4754455.svg#ifont") format("svg"); }

]]></style></defs><g class="transform-group"><g transform="scale(0.1953125, 0.1953125)"><path d="M948.774203 896.363018 786.848277 734.171032c26.100448-31.69384 47.938825-66.581418 63.651692-104.932888 19.974937-48.203862 30.893614-101.202936 30.893614-156.332535 0-54.597479-10.9197-105.997126-30.094412-154.202011l-0.799202-2.130524c-20.507056-49.004087-50.069349-93.481068-87.088474-130.766252l-1.863441-1.864464C724.526883 146.390092 678.985664 116.028597 629.183398 95.255481l0 0c-48.470945-19.974937-101.202936-31.426757-156.332535-31.426757-112.655779 0-214.925001 46.341445-288.963251 120.112612-37.818327 37.552268-67.912739 82.561367-88.952938 132.630716-19.707854 48.737004-30.893614 101.470019-30.893614 156.332535 0 54.330396 11.18576 106.796328 30.361495 154.469094l0.533143 1.863441c20.773116 50.335409 51.134611 95.611591 88.952938 132.896776l0 0c37.818327 37.818327 82.561367 67.912739 132.629693 88.419795l0 0c48.204885 20.240997 101.20396 30.893614 156.333558 30.893614s108.128673-10.652618 156.332535-30.893614c38.35147-15.712867 73.506131-37.286208 104.932888-63.384609l162.191986 162.191986c14.647605 14.381545 38.08541 14.381545 52.465932 0C963.687868 934.714488 963.687868 911.011646 948.774203 896.363018L948.774203 896.363018zM708.815039 708.87081 708.815039 708.87081 708.815039 708.87081l-0.799202 0.533143c-30.361495 30.627555-67.113537 55.128575-107.596554 72.439846-38.882566 15.712867-82.294284 25.035186-127.569444 25.035186-45.541219 0-88.686878-9.321296-127.836527-25.035186l0 0c-40.748053-17.311271-77.501118-42.345434-108.128673-72.972988l-0.26606 0 0.26606 0c-30.893614-31.426757-55.662741-67.64668-72.706929-108.661815l-0.533143-1.331321c-15.97995-38.883589-24.502044-81.762165-24.502044-125.973086 0-45.541219 8.788154-88.419795 25.034163-127.836527 17.045211-40.481993 41.547255-77.235059 72.706929-107.59553 60.455907-60.989049 143.549394-98.274234 235.964176-98.274234 45.275159 0 88.686878 9.321296 127.569444 25.034163 41.014112 17.311271 77.501118 41.813315 108.395756 73.240071l1.863441 1.598404c29.828352 29.828352 53.797253 66.315358 70.576405 105.997126l0.799202 2.130524c15.446807 38.883589 24.50102 80.962963 24.50102 125.706003 0 45.275159-9.055237 88.686878-25.301246 127.303384C764.475733 641.756249 739.442594 678.509315 708.815039 708.87081L708.815039 708.87081zM369.781416 229.217519 369.781416 229.217519c-15.97995 6.658653-31.159674 15.180747-44.74304 24.235984-13.849426 10.120498-27.164686 20.507056-38.883589 32.224935l0 0.26606c-12.251022 11.984962-23.436782 25.301246-32.492018 39.149649l0 0.26606c-9.853415 14.381545-18.10945 29.02915-24.502044 44.475957-4.79419 11.718903 0.533143 24.768103 12.251022 29.562293 11.18576 4.79419 24.502044-0.533143 29.29521-11.983939 5.060249-12.784164 11.718903-25.567305 19.707854-37.286208l0 0.533143c7.989975-11.983939 17.311271-22.63758 27.16571-33.024138 9.853415-9.854439 21.040199-19.175735 33.024138-26.632567 11.18576-8.256034 23.968901-14.647605 36.753065-19.974937 11.18576-5.326309 16.778128-18.376533 12.251022-29.828352C394.28346 229.483578 381.500319 224.690412 369.781416 229.217519L369.781416 229.217519zM714.939527 450.26803 714.939527 450.26803c-12.517081 0-22.370497 9.853415-22.370497 22.63758 0 29.02915-5.859451 56.993039-17.045211 84.158748l0 1.598404c-10.918677 25.035186-26.631544 48.470945-47.671743 69.777203-21.040199 20.773116-45.275159 36.220946-71.109548 47.405683-26.631544 10.9197-55.395658 17.044188-83.891665 17.044188-12.517081 0-22.63758 9.587356-22.63758 22.10546 0 12.252045 10.120498 22.63758 22.63758 22.63758 34.355459 0 68.978001-6.924713 101.470019-20.239973 30.893614-12.783141 60.188824-31.958876 85.49007-56.994062 25.035186-25.034163 43.677778-54.330396 56.994062-85.22401l0-0.798179c13.582343-32.492018 20.507056-66.847477 20.507056-101.470019C737.31207 460.121446 727.191572 450.26803 714.939527 450.26803L714.939527 450.26803z" fill="#ffc000"></path></g></g></svg>