<?xml version="1.0" standalone="no"?><!DOCTYPE svg PUBLIC "-//W3C//DTD SVG 1.1//EN" "http://www.w3.org/Graphics/SVG/1.1/DTD/svg11.dtd"><svg width="32" height="32" viewBox="0 0 32 32" version="1.1" xmlns="http://www.w3.org/2000/svg" xmlns:xlink="http://www.w3.org/1999/xlink"><defs><style type="text/css"><![CDATA[
@font-face { font-family: ifont; src: url("//at.alicdn.com/t/font_1442373896_4754455.eot?#iefix") format("embedded-opentype"), url("//at.alicdn.com/t/font_1442373896_4754455.woff") format("woff"), url("//at.alicdn.com/t/font_1442373896_4754455.ttf") format("truetype"), url("//at.alicdn.com/t/font_1442373896_4754455.svg#ifont") format("svg"); }

]]></style></defs><g class="transform-group"><g transform="scale(0.03125, 0.03125)"><path d="M757.912 255.956l-31.098 0c-14.629 0-26.487 11.859-26.487 26.487l0 214.13c-3.023-2.517-6.363-4.926-10.032-7.199L326.133 263.767C284.854 238.195 251.08 257 251.08 305.56l0 474.152c0 48.56 33.376 66.735 74.167 40.392L691.181 583.77c3.324-2.146 6.369-4.402 9.146-6.745l0 225.061c0 14.628 11.858 26.486 26.487 26.486l31.098 0c14.628 0 26.487-11.858 26.487-26.486L784.399 282.442C784.399 267.814 772.54 255.956 757.912 255.956z" fill="#ffffff"></path></g></g></svg>