<?xml version="1.0" standalone="no"?><!DOCTYPE svg PUBLIC "-//W3C//DTD SVG 1.1//EN" "http://www.w3.org/Graphics/SVG/1.1/DTD/svg11.dtd"><svg width="32" height="32" viewBox="0 0 32 32" version="1.1" xmlns="http://www.w3.org/2000/svg" xmlns:xlink="http://www.w3.org/1999/xlink"><defs><style type="text/css"><![CDATA[
@font-face { font-family: ifont; src: url("//at.alicdn.com/t/font_1442373896_4754455.eot?#iefix") format("embedded-opentype"), url("//at.alicdn.com/t/font_1442373896_4754455.woff") format("woff"), url("//at.alicdn.com/t/font_1442373896_4754455.ttf") format("truetype"), url("//at.alicdn.com/t/font_1442373896_4754455.svg#ifont") format("svg"); }

]]></style></defs><g class="transform-group"><g transform="scale(0.03125, 0.03125)"><path d="M512 1.548626C229.658643 1.548626 0.775593 230.431676 0.775593 512.774313S229.658643 1024 512 1024s511.224407-228.883051 511.224407-511.225687S794.341357 1.548626 512 1.548626zM512 972.873592c-254.107733 0-460.101839-205.995386-460.101839-460.101839S257.892267 52.669915 512 52.669915s460.101839 205.995386 460.101839 460.101839S766.107733 972.873592 512 972.873592zM369.2423 360.096449l101.225092 0 0 305.354448-101.225092 0 0-305.354448ZM553.532608 360.096449l101.225092 0 0 305.354448-101.225092 0 0-305.354448Z" fill="#ffffff"></path></g></g></svg>