<?xml version="1.0" standalone="no"?><!DOCTYPE svg PUBLIC "-//W3C//DTD SVG 1.1//EN" "http://www.w3.org/Graphics/SVG/1.1/DTD/svg11.dtd"><svg width="32" height="32" viewBox="0 0 32 32" version="1.1" xmlns="http://www.w3.org/2000/svg" xmlns:xlink="http://www.w3.org/1999/xlink"><defs><style type="text/css"><![CDATA[
@font-face { font-family: ifont; src: url("//at.alicdn.com/t/font_1442373896_4754455.eot?#iefix") format("embedded-opentype"), url("//at.alicdn.com/t/font_1442373896_4754455.woff") format("woff"), url("//at.alicdn.com/t/font_1442373896_4754455.ttf") format("truetype"), url("//at.alicdn.com/t/font_1442373896_4754455.svg#ifont") format("svg"); }

]]></style></defs><g class="transform-group"><g transform="scale(0.03125, 0.03125)"><path d="M266.088 768.043h31.099c14.629 0 26.488-11.859 26.487-26.487v-214.13c3.023 2.517 6.363 4.926 10.032 7.199l364.162 225.607c41.279 25.572 75.052 6.767 75.053-41.794v-474.152c0-48.56-33.376-66.735-74.167-40.391l-365.934 236.334c-3.324 2.146-6.369 4.402-9.146 6.745v-225.061c0-14.629-11.857-26.486-26.488-26.486h-31.099c-14.629 0-26.487 11.858-26.488 26.486v519.644c0 14.629 11.859 26.486 26.488 26.486z" fill="#ffffff"></path></g></g></svg>