<?xml version="1.0" standalone="no"?><!DOCTYPE svg PUBLIC "-//W3C//DTD SVG 1.1//EN" "http://www.w3.org/Graphics/SVG/1.1/DTD/svg11.dtd"><svg width="32" height="32" viewBox="0 0 32 32" version="1.1" xmlns="http://www.w3.org/2000/svg" xmlns:xlink="http://www.w3.org/1999/xlink"><defs><style type="text/css"><![CDATA[
@font-face { font-family: ifont; src: url("//at.alicdn.com/t/font_1442373896_4754455.eot?#iefix") format("embedded-opentype"), url("//at.alicdn.com/t/font_1442373896_4754455.woff") format("woff"), url("//at.alicdn.com/t/font_1442373896_4754455.ttf") format("truetype"), url("//at.alicdn.com/t/font_1442373896_4754455.svg#ifont") format("svg"); }

]]></style></defs><g class="transform-group"><g transform="scale(0.03125, 0.03125)"><path d="M975.186166 0.64C758.226166 4.992 521.010166 56.128 304.050166 128 303.922166 126.528 304.050166 768 304.050166 768 264.882166 759.008 207.314166 764.48 160.850166 785.888 74.578166 825.664 27.570166 906.016 55.794166 965.376 84.050166 1024.768 176.882166 1040.672 263.122166 1000.928 341.970166 958.08 365.490166 920.096 368.050166 864L368.050166 288C539.026166 236.992 741.042166 201.344 912.050166 192L912.050166 704C872.434166 694.112 802.578166 707.648 755.026166 729.568 668.786166 769.344 621.746166 849.696 649.970166 909.056 678.226166 968.448 771.058166 984.352 857.298166 944.608 918.642166 916.352 967.698166 867.52 976.402166 820.352 976.402166 820.352 974.290166-0.448 975.186166 0.64Z" fill="#ffc000"></path></g></g></svg>