<?xml version="1.0" standalone="no"?><!DOCTYPE svg PUBLIC "-//W3C//DTD SVG 1.1//EN" "http://www.w3.org/Graphics/SVG/1.1/DTD/svg11.dtd"><svg width="200" height="200" viewBox="0 0 200 200" version="1.1" xmlns="http://www.w3.org/2000/svg" xmlns:xlink="http://www.w3.org/1999/xlink"><defs><style type="text/css"><![CDATA[
@font-face { font-family: ifont; src: url("//at.alicdn.com/t/font_1442373896_4754455.eot?#iefix") format("embedded-opentype"), url("//at.alicdn.com/t/font_1442373896_4754455.woff") format("woff"), url("//at.alicdn.com/t/font_1442373896_4754455.ttf") format("truetype"), url("//at.alicdn.com/t/font_1442373896_4754455.svg#ifont") format("svg"); }

]]></style></defs><g class="transform-group"><g transform="scale(0.1953125, 0.1953125)"><path d="M999.006905 817.986996 655.622972 474.605063c52.64399-124.255976 28.343994-273.356947-72.945986-374.646927S332.287035-25.63184 208.030059 27.01115l163.457968 163.456968c33.324993 33.325993 33.322993 87.355983 0 120.680976l-60.337988 60.339988c-33.325993 33.323993-87.354983 33.325993-120.681976 0L27.011095 208.029115C-25.630895 332.283091-1.3329 481.385061 99.95808 582.675042c101.29098 101.28798 250.390951 125.590975 374.646927 72.946986l343.381933 343.384933c33.322993 33.323993 87.353983 33.323993 120.679976 0l60.339988-60.339988C1032.330898 905.340979 1032.330898 851.311989 999.006905 817.986996z" fill="#ffffff"></path></g></g></svg>